<svg id="Layer_1" data-name="Layer 1" xmlns="http://www.w3.org/2000/svg" viewBox="0 0 512 512"><defs><style>.cls-1,.cls-4{fill:#373837;}.cls-2{fill:#e3e2e2;}.cls-3{fill:#bababa;}.cls-4{font-size:172.5px;font-family:Bariol-Bold, Bariol;font-weight:700;}</style></defs><title>Artboard 1</title><path class="cls-1" d="M389.21,380c.08.64.17,1.29.25,1.93a20.72,20.72,0,0,1,1.71,6.08c.17.63.33,1.26.5,1.88,1.11,3.8,0,4.58-3.92,3.76-6.87-1.44-13.79-3.38-20.94-1.79-6.81.63-13.52,1.64-19.54,5.24-.85.51-1.79.87-2.61,1.44-1.11.78-2.34,1.62-1.52,3.21.72,1.38,2,.89,3.1.53,3.78-1.27,7.56-2.52,11.34-3.8a42.69,42.69,0,0,1,8.69-2.17c.72-.17,1.44-.35,2.15-.55s1.56-.3,2.3-.61c7.12-1.5,13.88,1.55,20.87,1.73,1.62,0,2.4,1.53,2.7,3.1,1,3.18.87,5-3.47,4.44-3.49-.45-7.11.15-10.68.28a1.6,1.6,0,0,0-1.23.1c-11.78.35-22.94,3.35-33.74,7.87-3.42,1.44-3.27,4.73-2.54,7.28,1,3.39,3.62,1.09,5.31.47,13.44-5,27-9.46,41.56-9.46,7.19,0,7.19-.16,8.79,7.05-2.09,3.5-5.22,1.42-8,1.48-1.77.08-3.55.06-5.32.31-.73.15-1.47.29-2.2.46-10.86,2.36-21.72,4.74-32.24,8.43-1.1.38-2.22.7-3.28,1.17-1.91.82-4,1.87-2.89,4.33.92,2.09,2.93.88,4.4.43q13.56-4.17,27.2-8a22.78,22.78,0,0,1,7.86-1.07c3.4-.4,6.69-1.59,10.18-1.17,2.12.26,4.31.31,5.46,2.6l.34,1.94a25.66,25.66,0,0,1,.49,4.09l.09,2.08c-2.94,1.74-6,.39-9.06.46-2.15.16-4.32.18-6.48.14a8.3,8.3,0,0,0-3.72.56c-9.94,2.77-19.73,6.06-29.7,8.74a15.1,15.1,0,0,0-4.19,1.59c-1.66,1.06-2.2,2.51-1.22,4.26s2.18,2.08,4.15,1.23c12-5.14,24.55-8.3,37-11.85a17.8,17.8,0,0,1,5.44-.66c6.75.07,7.71.75,8.93,6.35l.24,2c.73,3.35.12,6.74.44,10.1q1.07,6,2.12,12a2.4,2.4,0,0,1,.53,2.12l.56,2.86a2.71,2.71,0,0,1,.47,2.14c.22,1.28.43,2.56.65,3.85A3.23,3.23,0,0,1,407,483c.15,1,.31,1.93.46,2.89a2.61,2.61,0,0,1,.47,2.13c.15,1,.3,1.92.44,2.88a2.33,2.33,0,0,1,.51,2.13l.52,2.87c.93,1.23.75,2.67.74,4.08.13.63.27,1.26.4,1.89.77,1.27.58,2.7.68,4.09l.31,1.92a5.91,5.91,0,0,1,.64,4.08h-3c-3.19-4.1-3.63-9.35-4.69-14-1.66-7.21-2.59-14.74-4.17-22-1.71-7.77-3.59-15.8-7.68-22.9a4.68,4.68,0,0,1-.83-3.05c-3.83.45-7.27,2.25-10.95,3.27a281,281,0,0,0-27.63,7.92c-3.48,1.13-3.6,4.05-3.34,6.91.66,7.41,1.36,14.82,2.73,22.15a41.76,41.76,0,0,1,1.09,6.85,10.21,10.21,0,0,0,.65,3.09c.49,2.91,1.43,5.77,1.19,8.78a4.51,4.51,0,0,1-1.37,2.94h-7c-1.55-1.69-1-3.74-.87-5.67.38-6.95-2.44-13-5.16-19.11,2.35,8.11,7.86,15.67,4,24.78h-5a3.25,3.25,0,0,1-1-2.21,53,53,0,0,0-1.1-10.36c-.74-3.31-3.35-5.7-4.62-8.79A76.63,76.63,0,0,1,337.16,503c.52,3,1.4,6.24-1,9h-5a6.06,6.06,0,0,1-1.25-1.8c-2-4.79-2.07-10.09-3.75-15-.38-1.1-.69-2.23-1.11-3.31-.59-1.5-1.38-2.83-3.3-2.07-1.69.66-1.35,2.15-.95,3.41,1.3,4.13,3.28,8,4.53,12.16.65,2.18,1.79,4.44-.17,6.58h-7c-2.88-4.29-4.07-9.34-6.24-14-1.05-2.25-2-4.34-4.3-5.84-3.66-2.42-3.15-5.52,1-7.25,2.75-1.14,5.74-1.54,8.58-2.45C322,481,326.49,479,331,477a16.79,16.79,0,0,0,7.41-4.83c1-1,1.66-2.28.66-3.56-1.25-1.59-2.37-.28-3.37.46a18.18,18.18,0,0,1-6.08,3.34c-6.3,1.61-12.29,4.2-18.5,6.1a40.81,40.81,0,0,1-4.3,1.29c-3.85.75-6.36-.74-7.25-4.25-1-4,1.73-5,4.63-5.62a94.12,94.12,0,0,0,23-8.06c2.3-1.2,6.29-2.34,5.16-5-1-2.4-4.44.08-6.48,1.07-7.13,3.45-14.68,5.4-22.36,7a9.84,9.84,0,0,1-4.94.08c-2.4-.73-3.41-2.54-3.59-4.88a4.18,4.18,0,0,1,3-4.6,28.35,28.35,0,0,1,5.34-1.32c9.66-1.53,18.38-5.75,27.23-9.6,1.28-.56,2.6-1.32,1.94-2.94-.78-1.91-2.3-.7-3.43-.34-8.41,2.67-17.06,4.51-25.38,7.5-2.8,1-5.74,1.87-8.81,1.31a5.28,5.28,0,0,1-4.55-4.67c-.4-2.53,1.41-3.48,3.35-4.29,6.61-2.74,13.12-5.79,20.44-6.95-.62-.81-1.47-.5-2.12-.75-1.2-.46-2.86-.47-2.93-2.18-.06-1.51,1.19-2.34,2.41-2.9,3.21-1.47,6.67-2.05,10.09-2.79a18.74,18.74,0,0,0,3.41-.78c1.54-.64,3.35-1.3,2.78-3.46-.5-1.88-2.36-1.81-3.77-1.59a51.6,51.6,0,0,0-19.67,6.84,24.79,24.79,0,0,1-16.22,3.76c-2.18-.23-3.86-1.11-4.18-3.53s.31-5.26,2.92-5.65c13.56-2,24.5-11.34,38-13.29.65-.1-.16.07.48-.11,1.63-.43,4-.25,3.69-2.81-.23-1.93-2.2-1.4-3.58-1.54a40.93,40.93,0,0,0-21.74,6.45,53,53,0,0,1-12.7,5.78c-3.3,1-6.62,1.37-8.94-2.12-2-3-2.29-6.49-3.18-9.82a75.11,75.11,0,0,1-.69-7.92c-.51-5.75,1.15-8.29,6.77-10.4,2.1.49,2.31,2.19,2.52,3.9a15.71,15.71,0,0,1,.14,2.37,12.19,12.19,0,0,0,0,1.48c-.06,3.32.89,6.53,1.13,9.82.13,1.65.08,3.53,2.61,3.2,2.24-.3,3.12-1.8,2.88-3.86a110,110,0,0,0-3.24-18,23.71,23.71,0,0,1-1-4.16c-.31-2.53,2.29-4.92-.2-8.45A102,102,0,0,1,274.25,395c-1.23,1.11-2.34,2.33-3.52,3.47-.1.16-.58.23-.15.54-.14-.27,0-.5.31-.68,1.34-1,2.06-3,4.28-2.42,2.31,3.27,2.82,7.23,4.22,10.85.73,3.13.47,6.38,1.2,9.52,1.45,4.13,1.77,8.5,2,12.78.39,7.45,2.93,14.21,5.23,21.17,5.27,16,12.23,31.28,17.42,47.25a49.9,49.9,0,0,0,4,8.56c1,1.83,2.48,3.7.92,6h-8c-4.27-3.15-5.93-8-7.51-12.62-1.71-5-3.32-10.07-5.9-14.76-2-3.56-2-7.67-2.76-11.57a55.87,55.87,0,0,0-2.07-8.93,72.07,72.07,0,0,1-5.79-20c-1.57-12-6.3-23.28-8.83-35.63-3.37,2.14-3.56,4.59-2.94,7.33,2.76,12.33,5.39,24.69,11.33,36.05,4,7.64,5,16.14,6.27,24.51,1.65,10.86,3.17,21.73,7.93,31.81.56,1.2,1,2.5.27,3.83h-9c-2.34-1.66-3.1-4.2-3.89-6.77-3.61-11.83-5.3-24.05-7.54-36.16a57,57,0,0,0-1.6-7.31c-3.9-12-8.79-23.72-11.64-36.09-.39-1.7-.7-4.69-3.33-4-2.78.75-2.5,3.48-1.92,5.91a202.3,202.3,0,0,0,9.45,28.92,63.93,63.93,0,0,1,4.16,16.91,307.13,307.13,0,0,0,5.65,31.44c.53,2.39,1.65,4.85-.34,7.13h-7c-2.56-1.31-3.05-3.77-3.45-6.26-1.4-8.69-3.19-17.31-4.19-26.06-1.24-10.86-4.93-21-9-31a110.36,110.36,0,0,1-4-11.77c-1.18-4.25-1.34-4.25-5-1.34a4.69,4.69,0,0,1-1.22.85c-2.42.61-3.41-1.27-4.68-2.68a11.26,11.26,0,0,0-3.54-3c-11.5-14.43-26.24-24.57-42.35-33.3-11.37-6.15-21.74-14.11-32.89-20.75-4.21-2.52-5.15-6.22-3.35-9.7,1.18-2.27,2.58-2.74,4.75-1.15,4.68,3.45,10.12,5.84,14.43,9.78,9.47,8.66,21.44,13.3,32,20.22a69.24,69.24,0,0,0,9.95,5.72c-9.2-7.38-17.51-15.94-28.42-21.05a62,62,0,0,1-17.43-12.31c-3.37-3.34-7.06-6.85-12.64-4.63a2.77,2.77,0,0,1-1.34-.52,15.53,15.53,0,0,1-2.91-8.89,157.06,157.06,0,0,0-1.24-16.92c-.23-1.7-.93-4,1.52-4.68,2.1-.61,3.9.6,5.27,2.15a9.86,9.86,0,0,1,2.18,5.52c1.5,14.12,12,20.72,22.63,27,6.59,3.9,13.48,7.28,19.59,11.82-1.92-4-6-6.64-7.41-11.08a11.62,11.62,0,0,0-.4-3.41c-4-12.25-13.25-20-23.05-27.34-1.07-.8-2.36-1.62-3.55-.27-2.76,3.11-4.75.83-6.65-1-4.81-4.58-9-9.92-15.68-10.94-.64-1.14-.93.06-.55-.49.11-.17.17,0,.41.26a4.28,4.28,0,0,1,1,3.72c-.74,4.38.29,8.6,1,12.86.2.71.4,1.42.62,2.12,1.22,3.26,1,6.74,1.62,10.1.2.84.38,1.69.53,2.54A235.88,235.88,0,0,1,150,389c.1,20.13,2.16,40.16,2.81,60.25.56,17.12,2.32,34.16,2.9,51.27.13,3.9.14,8-2.47,11.47h-7c-1.92-2-1.76-4.57-1.8-7.06-.53-26.6-3.07-53.11-3.87-79.7-.05-1.67-.17-3.33-.14-5,.43-20.46-.8-40.9-1.17-61.35a139.3,139.3,0,0,0-5.41-34.82,14.81,14.81,0,0,0-6.37-8.82c2.37,2.75,5.06,4.33,5.28,7.5,3.56,9.73,5.73,19.68,4.87,30.11a2.14,2.14,0,0,1-2.16.63c-4.18-4.1-6.26-9.33-7.62-14.84-2.1-8.56-3.56-17.29-8.5-24.9-1.58-2.43-1.6-5.39-1.66-8.23a10.26,10.26,0,0,0-4-8.25,8.93,8.93,0,0,0-.43,7.27c4.12,12.57,6.21,25.82,13.77,37.26,3.12,4.73,5,10.5,6.57,16.12a7.82,7.82,0,0,1,.13,1.45c0,.49.08,1,.16,1.47.44,1.22,1.34,2.23,1.63,3.53,2.67,12.21.85,24.44.12,36.65a10.36,10.36,0,0,1-1.78,5.63,1.25,1.25,0,0,1-1.61.35l-.42-2a1.87,1.87,0,0,0-.53-1.11c-1.73-2.38-4.48-1.93-6.81-2.22-6.41-.8-12.58-3.33-19.18-2.73a1.58,1.58,0,0,0-1.09-.53,40.57,40.57,0,0,1-10.93-4c-8.25-4.5-17.07-3.89-25.79-1.88a97.49,97.49,0,0,1-27.18,2.38c-2.15-.11-3.92-.09-4.14-3s1.51-3.05,3.71-3.17c9.6-.49,19.13-.9,28.56-3.53,8-2.22,16.14-.89,23.84,2.63,7.93,3.63,16.42,5,25.06,5.55,2.82.18,5.77,0,8.42.73,4.62,1.36,5.3-.22,3.88-4.14a1.3,1.3,0,0,0-.31-1.13c-.82-2.84-3.31-1.61-5.06-2-16-3.43-31.84-7.39-48-10.16-6.43-1.1-12.4-.07-18.53,2-6.52,2.22-13.51,1.19-20.31,1.34a2.14,2.14,0,0,1-2.24-2.2c-.14-1.37-.19-2.71,1.23-3.5a3.61,3.61,0,0,1,1.4-.49c18.94-1.46,37.69-7.24,56.89-.13a80.69,80.69,0,0,0,28.78,5c3,0,4.07-2.15,3.94-4.83-.66-13.91-2.9-27.33-11.44-39a37,37,0,0,1-5.21-11.18c-1.4-4.61-2.54-9.3-5-13.54-.65-1.14-1.69-2.53.89-2.63,0-.43,1.11.22.61-.66-2.56-4.95-3.64-9.92-.44-15.07.75-1.22,1.14-1.45,2.88-1.3,6.78.56,12.89,2.65,19.26,5,7.27,2.71,14.6,5.15,21.49,8.76,2.65,1.39,5.26,2.85,7.17,5.26.48.6.79,1.64,1.85,1,1.47-.86.12-1.63-.17-2.43-2.66-7.27-7.57-11.88-15.41-13.12a41.74,41.74,0,0,1-5-1.48c3.73-3,7.68-.94,11.25-1.61,1-.39,2.2-1.43,2.54.69,4.76,5.68,7.2,12.66,10.7,19.05,5.9,10.78,14.3,19.69,21.55,29.46,3.19.77,4,3.75,5.51,6a29.48,29.48,0,0,1,3.72,7,88.53,88.53,0,0,0,18.33,31.59,41.43,41.43,0,0,1,3.53,4.8c3.45,6.09,7.5,11.81,11.15,17.79,1,1.62,2.09,2.91,3.52.37,4-7.11,10.28-12.24,16-17.77,10.76-10.39,19.93-21.9,26.71-35.28.93-1.84,2-3.5,1-5.6-1.63-3.21-.18-5.85,1.67-8.29,3.7-4.89,5.33-9.67,3.05-16.12S276.36,312,275.81,305A60.83,60.83,0,0,0,274,293.7c-1.91-5.54-1.83-11.63-4.79-17-1.2,6.51,1.44,12.72,1.34,19.11-2.31,6.94.47,13.48,1.74,20.1s2.32,13.44,3,20.24a17.3,17.3,0,0,1-1.13,8.82c-4.13,9.26-8.63,18.32-15.45,26-4.64,5.23-9.73,10-14.24,15.39-1.16,1.39-2.6,3.12-4.61,1.94s-.89-3.3-.36-4.95c3.39-10.48,10.86-18.21,17.91-26.19,1.88-2.12,3.84-4.16,5.56-6.42,4.56-6,5.69-12.83,5.62-19.18-3.12,10.16-9.87,18.56-18.46,25.72a1.68,1.68,0,0,1-1.31-.46c-1.15-2-.25-3.89.33-5.77,2.06-6.64,5.8-12.32,10.08-17.7,1.55-2,3.29-3.85,3.86-6.35.37-1.58.77-3.57-1.94-3.54-1.73,0-2.54-.8-2.36-2.42.35-2.95.37-6.11,3-8.15,1.87-1.44,2.8.74,4.13,1.47a9,9,0,0,0-1.32-4.84,9.87,9.87,0,0,1-.81-1.93c-.3-.87-.79-1.66-1.08-2.54a11.71,11.71,0,0,1-.89-4.51c-.37,3.31.19,5.95-1,8.37-1.4,2.11-3.52,2.06-5.65,1.88-3.39-.29-6.81.07-10.17-.55-1.32-.25-2.54-.89-3.9-1a7.88,7.88,0,0,1-1.49-.49,243.77,243.77,0,0,1-26-13.71c-4.15-2.44-8.4-2.74-13-2.07-5.69.82-6.09.48-7.38-5-.88-3.74-3.72-5.35-7-6.43-5.22-1.74-10.42-3.5-15.11-6.46-2-1.26-4.36-2.56-3.34-5.39.9-2.49,3.5-2.23,5.62-2.17a23,23,0,0,1,10.94,3c9.36,5.3,26.48,3.06,34.32-4.3,3-2.82,5.2-6.09,5.27-10.39,0-2.22-.78-4.41-3.28-4-3.5.55-7.43,0-10.31,2.87-2,.86-3.95,1.57-6.1.71-3.22-3.55-.65-5.93,1.88-8.67-6.5,2.71-12-2.94-18.38-1.38-2.52.63-5.21.51-7.68,1.67-1.8.84-4.12,1.74-5.17-.72s.24-4.53,2.42-5.89c1.63-1,3.49-.83,5.31-.62,2.83.32,5.61.38,8.08-1.4a6.09,6.09,0,0,1,1.29-.61c6.24-3,13.92-2.72,19.44-8.55-4.31-2.25-9-1.28-12.8-3.3-3.74-2.19-9-.7-11.9-4.88a2.65,2.65,0,0,1,.27-2.32,4.86,4.86,0,0,1,3.69-1c2.1.39,4.16,1.08,6.38.6,4.42-1,6.52-3.75,6-8.22-.46-3.83-1.08-7.6-3.69-10.7a5.86,5.86,0,0,1-1.33-2.67,126.19,126.19,0,0,0-6.53-23c-1.7-4.63,1.87-7.8,5.26-10.39,5.84-4.46,12.3-8,18.7-11.52,3.8-2.1,5.07-4.42,3.08-8.44a6.25,6.25,0,0,1,.3-6.22c.69-1.17,1-2.58,0-3.75s-2.15-.3-3.21.07c-1.82.64-3.6.89-5.12-.62s-.37-3,.23-4.53a10.6,10.6,0,0,0-.32-8.69c-3.8-8.25-12.45-11.91-20.28-7.5-4.13,2.33-9,1-12.85,4.17-1.26,1-3.56-.13-4.5-2-.75-1.53-2.11-2.67-3.55-2.09-3.89,1.55-8.28-1.11-12,1.82-1.73,1.36-4.26.56-5.74-.31-5.95-3.5-10-.33-14,3.37-4.77,4.37-4.77,4.37-7.81-1.57-.38-.74-.72-1.5-1.33-2.6-1.23,1-1.57,2.92-3.09,3.45s-3,1-3.24-1.4c1.12-4.2,4.28-7,7-10A12.35,12.35,0,0,0,131.9,100c0-.85.59-1.43.84-2.16,4.36-2.41,8.77-4.74,13.08-7.24,15-8.74,31.2-8.95,47.72-6.31,7.32,1.17,14.33,2.67,21.23,6.2a43.21,43.21,0,0,1,10.37,7.59c3.79,3.6,8.61,5.72,12.22,9.85s7.22,8.2,8.81,12.92c3.66,10.88,5.86,22.26,2.28,33.77a45,45,0,0,0-.55,25.57c5.94,22.12,5.44,43.7-5,64.63-3.08,6.18-2,9,3.78,12.69,7.15,4.65,15.15,7.5,23.08,10.47,2.79,1,5.61,2,8.42,3a6.66,6.66,0,0,0,1.07.83l3.22.95a3.71,3.71,0,0,1,3.72,1.31l1.45.29c2.23.9,4.32,2.12,6.52,3.08,2.93,1.28,3.58,3.1,1.48,5.67a2.67,2.67,0,0,0-.63.78,4.22,4.22,0,0,1,.75-.64,6.54,6.54,0,0,1,3-.6,16.29,16.29,0,0,1,1.85,0c.62,0,1.21.21,1.83.23l.8-.74c.42-.74,1.25-.6,1.88-.88l6.1,1.7c-1.78,2.71-4.12.62-6.51,2.1,6.61,5.62,9.82,13,12.05,20.91a1.35,1.35,0,0,0,.37,1.13c.1.61.2,1.21.29,1.82,2.34,3.86,1.59,8.18,1,12.14a35.92,35.92,0,0,0,2,19.05c.89-.4.68-1.75,1.63-2.19a320.23,320.23,0,0,0-.37-33.94,3.68,3.68,0,0,0-.39-2.18c-1.52-5.39-2-11.18-6.7-15.95,5.17-.5,8.31.67,10.43,5.08,2.84,5.88,3.66,12.09,3.94,18.39a226.42,226.42,0,0,1,.07,26.44,6.82,6.82,0,0,0-.45,2.24,44.7,44.7,0,0,0,0,14c.06.5.51.92.32,1.47.09.85.17,1.7.26,2.55,1.44,6.32.45,12.53-.84,17.64,0,1.74,1.06,1.31.39,1.34-.17,0-.24-.09-.24-.29-.07-3.1.62-5.88,3.32-7.82,8-3.82,16-7.62,25.17-6.94,3.05,1.54,6.52,2.06,9.47,3.84,1.38,3.82-1.26,5.5-3.82,7.24a11,11,0,0,1-2.4.48,27.67,27.67,0,0,1-4.73,0,14.89,14.89,0,0,1-3-.3c-7.5-2.18-12.36,2.59-17.6,6.46,3.6-.12,6.62-2.6,10.29-2.12.47,0,.93,0,1.39,0,3.29.08,6.58,0,9.87.09,3.45.08,6.53.62,5.2,5.38,2.79.11,4.89-1.08,7.18-1.23,1.65-.15,3.32-.1,5-.17,1.15,0,2.52,0,2.71-1.55.23-1.78-1.06-2.24-2.5-2.38a27.08,27.08,0,0,0-3.49-.1c-2.6,0-6,.93-7.15-1.84-1.19-3,2-5,3.92-6.83,2.62-2.46,6.16-3,9.71-3.09,9,1.58,9,1.58,11.16,12.3l.42,1.89A4.54,4.54,0,0,1,389.21,380Z"/><path class="cls-2" d="M193.13,367c-1.37,1.67.49,2.11,1.16,2.93,3.42,4.15,6.89,8.25,10.42,12.45-2.35,1.55-3.59-.12-4.67-1a75.51,75.51,0,0,0-19-11.73c-8.39-3.53-13.66-11-21.14-15.54-1.27-.78-1.14-2.32-1.46-3.54-1-3.7-2.27-7.4-2.51-11.16-.25-4-2.7-5.2-6.65-7,2.36,10.66,1.63,20.83,3.92,30.7a.81.81,0,0,0,1.05.12c1.31-3.19,2.7-4,6.07-1.66s6.81,4.66,9.61,7.8a32.64,32.64,0,0,0,11,7.65c12.58,5.83,22.63,15.19,33.39,23.56,1,.82,2.9,1.71,1.45,3.56s-2.51.24-3.73-.53c-5.34-3.36-10.5-7.09-16.12-9.89-14.59-7.3-26.82-18.11-40.51-26.73-2-1.24-2.28.07-2.91,1.14-1.34,2.27-1.1,4.49,1,6,2.65,1.91,5.55,3.48,8.34,5.21,15.23,9.45,30.55,18.78,45.67,28.41,9.27,5.91,16.59,14,23.69,22.32.33,1.55-.37,2.15-1.86,2a2.62,2.62,0,0,0-2.57-.89c.64.75,1.62-.05,2.2.57,1.52,1.65,3.78-.08,5.4,1.17,1.39.86,1.91,3,4,2.79.1.75.68,1.16,1.15,1.66a47.1,47.1,0,0,1,5,13.77,37.66,37.66,0,0,0-5-13.71,5.24,5.24,0,0,1-1.28-1.61c-.37-2.54,2.07-3.17,3.24-4.63,1.68-2.09,2.72-1.61,3.61,1,8.22,23.86,15.62,47.91,18.13,73.18a14.86,14.86,0,0,0,1.89,6.67h-9c-3.42-1.73-1.57-4.89-2-7.1-.11,2.3.13,5-2,7.1h-17a2.57,2.57,0,0,1-.55-2.81,14.67,14.67,0,0,0,4.05-5.8c4.31-2.78,4.49-6.6,3.53-11.26-2.12-10.28-2.62-20.83-4.95-31.08-1-4.52-2.08-9.05-5.71-12.59.67,9,1.83,17.9,3.24,26.78a21.1,21.1,0,0,1,.63,2.33c.36,2.55.72,5.1-.8,7.45a2.81,2.81,0,0,1-3.12.53,3.08,3.08,0,0,1-1.37-2.68,11.74,11.74,0,0,0-3-9,149,149,0,0,1-8.47-26.62c-.19-.71-.32-1.42-.44-2.14a5.77,5.77,0,0,1,.18-2.74,16.87,16.87,0,0,1,1.2-2.11,3.59,3.59,0,0,0,0-1.53,7.7,7.7,0,0,0-.55-.85c-.28-.25-.53-.51-.79-.78a6,6,0,0,1-1.06-1.49,16.25,16.25,0,0,1-.79-1.88,13.79,13.79,0,0,1-.63-2.17c-.94-8.65-1.91-10.12-8.89-13,.44,7.94,1.35,15.65,2.35,23.31,2.5,19.13,3.57,38.37,5.36,57.55.39,4.15,1.38,8.66-1.49,12.55h-9c-3.15-5.49-2.23-11.69-2.55-17.51-1.18-21.74-3.3-43.38-5.78-65-.57-4.95-.78-9.95-1.45-14.9-.29-2.12-.26-4.42-3.57-5.11.36,9.11,1.45,18,2.59,26.83,2.77,21.47,3.75,43.07,5.4,64.62.29,3.69,1.09,7.71-1.64,11.06h-9c-1.66-1.71-1.74-3.89-1.75-6.07-.13-26.49-3.68-52.71-6.32-79-.85-8.42-3.17-16.67-2.85-25.22.06-1.74-.05-3.67-3.23-4.78.8,6.88.41,13.31,1.3,19.59,3.86,27.19,5.14,54.61,7.43,81.94.37,4.49,1.45,9.33-1.58,13.54h-10c-1.92-2-1.8-4.58-1.77-7.06.23-19.84-3-39.47-3.66-59.24-.64-18-4.77-35.65-4.42-53.7a16.06,16.06,0,0,0-.19-2.49c-.22-1.62-1-3.26-2.63-3.12-2.15.17-1.43,2.3-1.32,3.59,1,11.26,1.59,22.55,2.71,33.81,1.76,17.71,2.24,35.53,4.23,53.22,1,9.31.75,18.61.82,27.93,0,2.48.15,5-1.77,7.06h-10c1.43-14.15-.5-28.19-1.23-42.27-1.64-31.7-3.69-63.38-4.47-95.12-.16-6.46-1-12.91-1.46-19.37a1.68,1.68,0,0,1-.19-1.22q-.87-5.44-1.73-10.89a1.21,1.21,0,0,1-.29-1.12c-.88-4.77-3-9.35-.9-14.48.87-2.12-2.35-2.67-3.91-4.56,11.39.39,17.36,8.49,24.74,15.63.37-6.21,2.63-5.29,6-2.69,10.13,7.79,19.43,16.19,24,28.61a1,1,0,0,1-.69,1.09c-6.13-1.8-9.84-6.91-14.41-10.78-4.39-3.71-8.46-7.79-13.78-10.71-.3,2.95,1.3,4.46,3.11,5.63,8.34,5.4,16.95,10.38,24.7,16.66Z"/><path class="cls-1" d="M127.11,460.3c-3.07-3-7.22-3.36-11-4a365.87,365.87,0,0,0-46.58-5.18c-6.22-.29-12.14,2.15-18.29,2.28-2.56.05-5.93,1.06-6.93-3-.62-2.54-.4-4.28,2.81-4.26a75.5,75.5,0,0,0,10.43-.19c15.93-2.17,31.67,1.85,47.55,1.31,5.23-.18,10.27,1.88,15.58,1.92,2.48,0,4.55-.56,5.45-2.44,1.1-2.3-1.77-2.82-3-3.86-4.61-3.92-10.46-4.19-16-4.4-10.12-.37-20.27-.22-30.41-.18a39,39,0,0,1-8.89-1.09c-7.26-1.62-14.55-.64-21.84-.26-1.81.1-3.65.41-4.71-1.77-1.49-3.07-.57-4.54,2.81-4.61a124.1,124.1,0,0,1,20.56,1.16c10.26,1.51,20.51-.78,30.8-.43,8.63.29,17.3-.21,25.82,1.65.83,0,1.61,0,1.78-1.1-.72-1.12-1.33-2.33-2.68-2.86-.42-.25-.74-.62-1.13-.9l-2.19-3c.21-2.36,2-2,3.34-1.65,4.19,1,8.31,2.18,12.31-.62.37-.26.89.25,1.22.64,1.15,2.08,1,4.33,1,6.58a17.3,17.3,0,0,0,0,5.13c-.35,6.06.88,12.06.64,18.12a8.14,8.14,0,0,0,.11,5.81c1.56,15.77,1.69,31.62,3.16,47.4a6.63,6.63,0,0,1-1.58,5.53h-10c-1.48-7.93-4.41-15.68-3-24l-3-1a1,1,0,0,0-1-.43c-5.71-2-11.7-2.45-17.65-3-15.87-1.4-31.76-3.14-47.53,1a14.55,14.55,0,0,1-4,.42c-2.65,0-3.18-2.08-3.48-4.1-.37-2.55,1.59-2.34,3.24-2.6,24.57-3.94,49-2.76,73.37,1.76,4.42-2,.84-4.21.17-6.34a8.2,8.2,0,0,0-4.14-1.73.88.88,0,0,0-1-.37c-7.24-1.1-14.46-2.82-21.75-3.14-12-.53-24.08-3.2-36.19-.11-3.65.94-7.62.55-11.39,1.11-3.06.45-3.67-.93-3.86-3.56-.21-2.9.85-4.05,3.67-3.73A25.32,25.32,0,0,0,60,461.08c8.27-2.52,16.5-.47,24.73,0,14.22.9,28.58.91,42.34,5.46C129.34,464.5,128.9,462.4,127.11,460.3Z"/><path class="cls-2" d="M283.25,413c1.95,3.32,4.56,2,7.28,1.24,5.68-1.54,10.34-5.06,15.5-7.59,6.34-3.11,12.82-5.55,20.09-4.36,2.21,2.27,1.78,4.6.16,7a91.33,91.33,0,0,0-26.11,10.14,23,23,0,0,1-11.39,3.25c-1.69,0-3.73-.41-3.66,2.67.06,2.69,1.4,3.35,3.62,3.63,7.09.91,12.73-2.7,18.48-5.88s11.82-4,18-5c3.07-.52,4,1.27,4.54,3.9.61,2.83-1.11,3.56-3.11,4.11-4.05,1.11-8.09,2.27-12.2,3.09-1.6.32-2.37,1.35-3.29,1.93l8.81,2.09.29,1.22c-9.92,2.33-19.4,5.91-29,9.19,1.25,6,2,6.59,7.77,5,11.6-3.26,23.15-6.66,34.67-10,2.59,5-.18,6.23-4.84,8.45a115.6,115.6,0,0,1-31.19,9.91c-2.31.39-2,1.7-1.6,3.26.63,2.39,1.44,4.55,4.65,3.83,7.45-1.67,15-2.91,22-6.24,4-1.9,8-4.2,13.08-3.52-1.34,4.4-3.34,7.15-8,9.05-8,3.28-15.75,6.95-24.33,8.44-1.8.31-4,.34-2.65,3.26.91,2,1,4.9,4.55,3.68,6-2,12-4,17.95-6,2.18-.71,4.33-1.75,6.74-1,2.48,1.42,4,3.18,2,6.09a92.9,92.9,0,0,1-22,8.42c-1.65.44-4,.38-4.1,2.79s2,2,3.65,2.1a2,2,0,0,1,1.42,1.12c2,6.77,6.9,12.48,7.14,19.87h-8c-5.54-9.65-8.13-20.5-12.46-30.65a329.78,329.78,0,0,1-16-45.82A85.7,85.7,0,0,1,279.52,416C280.3,414.4,280.86,412.56,283.25,413Z"/><path class="cls-2" d="M352.84,497.88a125.93,125.93,0,0,1-4.75-33.48c0-1.49-.45-3.21,1.44-3.8,10.41-3.27,20.53-7.65,31.61-8.48,5.3,2.37,7.35,7.27,7.65,12.27a50.57,50.57,0,0,0,3.75,15.29c1.92,5.05,3.29,10.07,1.88,15.46-.48,1.84.51,3.13,1.17,4.65,1.73,4,3.4,8,.6,12.21h-39a7.21,7.21,0,0,1-2.22-3.14q-.86-4.44-1.7-8.87A9.41,9.41,0,0,0,352.84,497.88Z"/><path class="cls-2" d="M133.8,430c-.09-2.37-.19-4.75-.29-7.12A13.67,13.67,0,0,1,132,419a18.31,18.31,0,0,1,.11-7.3c.66-1.54.27-3.3,1-4.83,1.17-6,.75-12.09,1.43-18.1.94-8.44.18-16.76-.91-25.09.35-1.25-.78-1.81-1.24-2.69a.94.94,0,0,1,.11-.93,6.21,6.21,0,0,0,.22-1c-2.79-6.46-4.86-13.37-8.55-19.26a69.81,69.81,0,0,1-9.38-24.54c-1.06-5.78-6-11-3.36-17.42.46-1.14-.22-3,1.45-3.32,1.29-.26,1.73,1.34,2.56,2.09a10.79,10.79,0,0,1,3.64,8.36c.08,4.47.71,8.79,4,12.49,1.54,1.74,2,4.54,2.64,6.93,2.69,9.7,4.77,19.59,9.57,28.59.86.83,1.41.83,1.45-.54A121.05,121.05,0,0,0,131.08,322a2.27,2.27,0,0,1,3.08.06c2.75.92,2.11,3.46,2.55,5.44,5.29,23.74,4.78,47.85,5.09,72,.36,28.92,1.45,57.83,3.83,86.68a189.71,189.71,0,0,1,.56,25.9h-9q-1.24-21-2.47-42.11c-.22-4-.32-7.93-.48-11.9-.08-1.34,0-2.69-.18-4-.4-6.35-.95-12.7-.15-19.06A15.91,15.91,0,0,1,133.8,430Z"/><path class="cls-1" d="M219.25,442l.29,3c0,.49.46.84.45,1.34a197.29,197.29,0,0,0,8.63,27.59c.83,2.71,2,5.32,2.6,8.1.2.95.41,1.91.61,2.86,4,6.45,4,13.82,4.71,21A4.26,4.26,0,0,1,235.2,509c0,1,0,2,0,3h-8c-1.53-1.58-1.66-3.57-1.57-5.6.66-15.47-1-30.59-6.92-45-.94-2.29-1.09-4.77-1.81-7.12,1.55,4.85,1.4,9.93,1.66,14.88.57,11.14,1.48,22.26,1.85,33.4.1,3.29.31,6.74-2.21,9.48h-5c-.2-15-1.34-29.9-2.86-44.79-1.55-15.23-3.32-30.44-5-45.65-.23-2.1-.42-4.2-.66-6.64,9.25,3,12.89,9.24,12.92,18.05a4.81,4.81,0,0,0,.42,1.28l.2,1.74a4.49,4.49,0,0,1,.92,1.16.63.63,0,0,0,.75,0c.52,0,.86.5,1.38.51l-.07,2.34C220.52,440.66,219.88,441.33,219.25,442Z"/><path class="cls-1" d="M163.19,512c.46-43.36-6.17-86.29-8.05-130,4.76,2,8.21,3.61,8.09,9.92-.34,19,3.79,37.74,4.55,56.72.85,21.12,4.09,42.12,3.41,63.32Z"/><path class="cls-2" d="M272.19,512c-5.82-23.63-6.28-48.51-16.91-71-2.24-4.75-3.1-10.17-4.45-15.31-.65-2.49,3-7.16,5.44-7.31,1.72-.1,1.5,1.3,2,2.29,2.89,5.72,3.15,12.3,5.67,18C272.55,458.28,275,479.34,279.2,500c.83,4.09,2.64,8,4,12Z"/><path class="cls-1" d="M181.19,512c-.38-39.65-6.71-78.87-9.07-119.14,3.7,2.08,7.77,2.38,7.44,7.44-.77,11.67,2.15,23,3.18,34.54,2.32,25.69,6.39,51.24,5.45,77.16Z"/><path class="cls-3" d="M396.19,512c-.07-4.73.64-9.63-3.42-13.4a2.73,2.73,0,0,1-.3-3.3c2.87-4,1.16-8.27-.21-11.69-1.89-4.72-2.35-10-5.19-14.29-.82-1.25-.05-2.06.28-3.15.73-2.45.43-5.05-1.63-6.67-1.27-1-2.24-1-1.3-3.17.71-1.62-1.47-1.87-3-2-3.79-.23-.08-1.5-.26-2.25,4.31-2.67,9.07-3.56,15.16-3.6-3.5,2-2.52,2.8-1,5.17,2.32,3.6,2.34,8.6,4,12.73a50.38,50.38,0,0,1,3.54,15.38c.35,5,2.93,9.44,2.72,14.59-.17,4,3.61,7.33,3.29,11.68a23.78,23.78,0,0,0,.33,3.93Z"/><path class="cls-2" d="M292.19,512c-6.46-11-8-23.39-9.82-35.64-1.43-9.77-3.46-19.28-8.12-28.07-5.78-10.93-7-23.21-10.19-34.88-1.16-4.21,3.67-5.37,5.47-8.87,2.14,3.84,2.38,7.5,3.11,10.95,2.42,11.49,7.33,22.36,7.91,34.39.23,4.76,3.06,9.4,4.7,14.1.14,3.11-.83,6.48,2.13,8.92,3.42,13.61,8.86,26.45,14.81,39.1Z"/><path class="cls-1" d="M197.19,512c-1.1-28.2-2.79-56.35-6.75-84.33-1.05-7.43-1.44-15-2.19-23.05,4.6,2.55,7.61,4.66,8,10.39.81,13.25,3,26.41,4.21,39.64,1.74,19.08,3.2,38.19,3.77,57.35Z"/><path class="cls-2" d="M218.19,512c1.08-19-1.64-37.84-2.22-56.76a12.86,12.86,0,0,1,.16-3.49c9.56,19,12.51,39.21,11.06,60.25Z"/><path class="cls-3" d="M124.17,488c1.12,0,2.49.7,2.24,1.45-1.69,5,.48,9.64,1.41,14.36.57,2.83.79,5.53-.63,8.16h-17c-.13-2.22.18-4.3,1.89-5.93a5.67,5.67,0,0,0,1.6-5c-.65-2.89-1.79-5.2,1.06-7.85,1.71-1.59-2.47-2.3-1.94-4.6C116.56,488.42,120.5,490.1,124.17,488Z"/><path class="cls-2" d="M325.19,512c-.43-6.75-3.68-12.59-6.05-18.7-.89-2.29-1.93-4.28,1.63-5.33,3-.9,4.63-.76,5.62,2.9,1.71,6.27,3.8,12.42,3.9,19a3.16,3.16,0,0,1-1.1,2.13Z"/><path class="cls-3" d="M336.19,512c1.3-8-2.19-14.94-4.9-22-.4-1.07-2.29-2.13-.07-3a2.75,2.75,0,0,1,3.77,1.51c2.94,7.57,7.23,14.86,5.2,23.53Z"/><path class="cls-3" d="M345.19,512a25,25,0,0,0-3-17.24,25.68,25.68,0,0,1-3.71-12.13c7.45,4.52,7.22,12,8.58,18.58.72,3.46.14,7.19.14,10.79Z"/><path class="cls-1" d="M252.19,512a24.47,24.47,0,0,0,.59-12.72c2.79,3.9,1.19,8.8,3.41,12.72Z"/><path class="cls-3" d="M355,508.86c2,.18,2.26,1.54,2.22,3.14h-3Z"/><path class="cls-3" d="M412.19,512c-.75-1.28-1.62-2.53-.64-4.08,2.17.71,1.45,2.58,1.64,4.08Z"/><path class="cls-3" d="M329.19,512a2.21,2.21,0,0,1,1.1-2.13l.9,2.13Z"/><path class="cls-3" d="M191.3,239.62a13.1,13.1,0,0,1-8,1.87c-5.89-.64-5.89-.66-7.93,5.23.45.11,1.13.46,1.29.3,5.12-5.16,12.42-4.26,17.77-3.34a46,46,0,0,0,14.26.41c2.11-.28,2.11,1.25,1.11,2.52a9,9,0,0,1-3.27,3c-2.42,1-2.3,2.81-2.23,4.76-.69,4.14-2.67,5.8-7.54,5.45-2.89-.2-4.7.58-6.22,4.21,6.15-2.59,12.24.32,17.75-3.26,5.1-3.3,5.33-3.13,1.08-7.37,3.37-3.33,8.12-2.74,12.15-3.68,2.95-.69,4.29,3,4,6.13a16.94,16.94,0,0,1-9.77,13.87c-9.94,5-20.45,7.35-31.07,2.34a31.34,31.34,0,0,0-12.75-3.16c-1.38-.05-3.4-.66-3.84,1.27-.38,1.69,1.35,2.44,2.63,3.25a46.55,46.55,0,0,0,15.58,6.36c6.36,1.3,8.41,3.56,8.62,10.24.06,2,1.35,1.8,2.2,1.51,12.89-4.38,21.1,5.26,30.58,10.52,4.11,2.27,9,2.52,12.6,5.61,2.4,3,2.53,6.33,1.55,9.9-.38,1.39-1.35,2.77,1.63,3.34,2.76.54,2.09,3.54.81,5.33-1.82,2.54-3.45,5.25-5.81,7.43-3.42,3.18-3.29,4.15.33,6.81,4.69,3.44,5.53,7.32,3.23,12.7a8.15,8.15,0,0,0,1.86,9.59c3.53,3.57,2.89,5-1.81,6.77-5.54,2-11.28,3.82-15.22,8.78a11.84,11.84,0,0,1-9.44,4.83c1.78,5.28,1.38,6.57-2.36,7.95-9.36-10.4-17.61-21.46-21.89-35.07-1.71-5.43-5.21-10-8.18-14.82,2.69-1.89-.45-3.71-.6-6,4.39.71,5.39,4.93,8.66,6.25,3.6,1.46,4.75,5.73,7.74,8.07.84.66,1.24,2.64,2.42,1.94,1.42-.84,2.91-2.51,2.72-4.28a50.49,50.49,0,0,1,.15-13.56c.51-3-3.89-6.46-7-6a41.29,41.29,0,0,0-4.23,1.23l.34-5.84,0,0c-3.23-1.21-2.53-4.35-3.05-6.71-1.45-6.51-4.76-12.22-10.2-15.42-6.25-3.66-12-8-18.09-11.8-1.56-1-3.18-1.82-3.32-3.92-.06-.79-.67-1.54-1.1-1.41-4.89,1.51-4.78-4.21-8.21-5.47-1,1.1.22,4.69-3.13,3.73a4.47,4.47,0,0,1-4.74-1.74,6.66,6.66,0,0,1-.22-3.7c.94-3.26-1.92-6.94,1.08-10a36.61,36.61,0,0,1-1.29-12.82c.35-6.05-4.38-10.09-6.75-15.08a45.38,45.38,0,0,0-10.85-14.39c-4.84-4.38-8.18-10.43-12.17-15.75-.26-2.93-3.18-4.46-3.73-7.36a14.73,14.73,0,0,1-.39-5.86c.27-1.33.77-2.76,2.14-3.15,1.85-.53,1.91,1.33,2.52,2.39s.49,2.57,2.11,2.27a3.44,3.44,0,0,0,2.29-2.45,10.86,10.86,0,0,0,.52-3.93c0-4.81-.12-9.63.7-14.41a11.36,11.36,0,0,0-.88-6.36c-3.88-9-2.86-18.32-.8-27.35a43.26,43.26,0,0,0-.5-20.86c.27-3.19,2.31-5.06,4.88-6.53,1.84,2.22,3.32.93,4-.84a30.27,30.27,0,0,1,2.75-5.18c1.71,3.92,3.06,7.74,6.26,11.68.52-2.59-2.55-6.72,2.57-4.91.17.06.72-.33.75-.56.58-4.51,5.14-3.16,7.49-5.05.65-.52,2.09-1.23,2.57.09,1.37,3.82,5.62.43,7.35,3.11,2.38-4.45,5.39-3.64,8.65-1.07a4.2,4.2,0,0,0,.64-.71c3.15-5,6.14-1.19,8.07.78,2.39,2.43,3.74,5.18,6.24.41.34-.66.71-1.68,1.76-.78,4,3.4,6.71-.52,9.4-2s7.22-2.41,8.12-1.65c4,3.41,10.15,4.25,12.41,9.79,1.67,4.11,3.54,8.19-.16,12.24-.72.78-.28,1.58.41,2.13a3.45,3.45,0,0,0,4.17.27c1.38-.77,2.38-3.42,4.46-1.1a4.58,4.58,0,0,1,.06,6.32c-2.1,2.5-.14,4.46.67,6.15,1.71,3.55.36,6-3,8.09-7.48,4.61-15.68,8.16-22.29,14.11-3.14,2.82-3.85,5.93-1.8,10.18,2.34,4.85,4.48,9.92,4.67,15.58a13.81,13.81,0,0,0,3.37,8.16c3,3.68,3.79,13.54,1.58,16.31-2.95,3.7-6.91,4.53-12,2.51-1.33-2.48.93-2.69,2.22-3.48,4.63-2.82,6.12-6.85,4.15-11.9a70.92,70.92,0,0,0-3.56-8.23,31.67,31.67,0,0,1-3.75-10.19c-.72-4.3-2.11-4.71-5.55-2.25a7.51,7.51,0,0,1-3,1.75c-2.65.44-3.85,1.52-2.8,4.41.61,1.65-.23,3.35-1.27,4.66-3.2,4.05-5.11,9-8.95,12.59a5,5,0,0,0-2,3.37c0,2.31.45,4.15,3.48,2.94,3.24-1.31,6.55-2.42,9.54-4.31,1.26-.79,2.77-1.53,4.21-.51s1,2.7.81,4.16a40.9,40.9,0,0,1-3.6,11.38c-3.41,7.77-1.71,11,6.35,13.08C189.14,236.87,191.88,236.37,191.3,239.62Z"/><path class="cls-1" d="M70.26,325c.19,3.18-.38,5.6-4.45,5.5-1.93-.05-3.09,1.25-2.66,3.33C63.4,335,63.3,337,65,337c1.85,0,4,.08,5.13-2.19,2.57-5.28,4.53-6,9.8-3.72,1.44.62,2.57,1.47,4.53,1.13,1.5-.26,6-.38,2.26,3.9-1.92,2.21,1.43,4.06,1.4,6.8,1.52-1.13,2.48-1.93,3.53-2.61s2.18-1.26,3.25-1.87c-8.19-8.1-12.2-19-19.54-27.61-1.74-2-2.47-3-5.13-1.9-1.28.53-3.37,2.06-5-.53,1.45-.65,2.84-1.38,4.29-1.9,7.76-2.77,10-1.86,14.23,5,2.93,4.78,5.65,9.71,9.6,13.84,1.2,1.25,2.38,3.19,2.36,4.8a21.61,21.61,0,0,0,4.84,14c-3.4,1.53-7.18.61-9.87,3.79-2.52,3,.85,3.87,1.23,5.68.42,2,2.37,1.08,3.68.32,4-2.35,8.18-4.11,13.1-2.06,1.13-2.21.19-4.29-1-5.94-6.65-9.56-9.27-20.93-14.24-31.24-1.8-3.73-4.47-7.11-5.07-11.65-.24-1.81-4.44-1-6.85-1.08-4.4-.2-5.84-1.93-5.29-6.78,2.16-1.87,3.29,1.11,5.08,1.16,0-2.2-2.21-2.76-3-4.31l.93-1.85.82-1.13c3.33-2.17,5.47-6,11-7.46-3.81,5-5.28,9.71-3.74,14.72.66,2.16,2.84,3.1,5.55,3.88-1-4.44,0-7.65,3.35-10.64,1.68-1.49,1.54-4.83,3.6-7,3.68-3.85,7.89-4.86,12.81-2.13,1.44.8,2.71,1.06,4.08-.15,6-5.25,14.53-6.61,20.08-14,.52,5-2,7.37-4.65,9.43-3.29,2.55-6.77,4.86-9.34,8.19a2.6,2.6,0,0,1-3.42.91c-2.19-.75-4.51-1.16-6.68-2s-3.5-.59-5.31,1.57c-2.06,2.45-5.56,3.53-7.26,6.79-2,3.72-3.14,7.32-1.24,11.36a1.46,1.46,0,0,1-1,.71c-3.34.33-1.32,2.26-.86,3.39,1.88,4.62,3.67,9.31,6,13.72,5.32,10.22,8.37,21.32,12.46,32,2.43,6.35,2.43,13.63,7.79,19.11-5.84-1.64-11.21-.81-16.61.47-3.63.86-6.26-.51-8.82-3.47-3.93-4.53-9.84-6.31-15.47-6.25-9.55.09-19.16-1.23-28.73,1.38-4.68,1.28-9.94.49-14.94.51-1.35,0-3.35.71-3.68-1.45a5.15,5.15,0,0,1,2-5.33,3.6,3.6,0,0,1,1.87-.57C53,356.45,67,354,81.17,355.13a52.91,52.91,0,0,1,7.28,1.57,11.46,11.46,0,0,0-15-9.73c-4.19,1.37-8,1.12-12.22.39-6.21-1.08-12.53.52-18.86-.27-3.92-.48-4.23-2.31-3.62-5.35.35-1.73,1-2.75,3-2s4.65,1,6.66,2,2.92,1.29,5.05-.29c2.66-2,5.67.41,8.14,1.95,4.3,2.69,8,4.65,11.75-1.19,1.87-2.93,5.53-.39,8.61-.48-.45-3.73-1.79-6.77-5.6-7.26-3.17-.42-5,1.58-6,4.75s-5.59,3.19-7.86-.22a16.1,16.1,0,0,0-4.16-4.86c-1.26-.84-2.81-1.92-4.14-1.06-4,2.6-6.9-.62-10.18-1.66-1.61-.51-2.48-1.61-1.74-3.47s1.7-2.78,3.78-2.31A50.21,50.21,0,0,0,57.24,327c3.24,0,2.67-1.65,2.9-3.2.3-2,.63-4.21-2.4-4.46-2.43-.2-5,.18-8.32-1.78,6.2-1.65,11.41-3.75,16.76-4.14,2.52-.19,3.76,4.05,5.16,6.6-.82,2.64-3.9,1.81-5.49,3.42C67.11,324.89,69.18,323.52,70.26,325Z"/><path class="cls-1" d="M133.11,411c.68,3,.33,6,.12,9-7.34.22-14.22-2.39-21.23-3.31,1.9,2,5.45,3.45,3.23,7.45-10.14-3.65-20.65-1.46-31-2-5.92-.34-11.43,1.95-17.27,2.34-8.61.58-16.76-1.87-25.11-3-1.79-.25-3.29-1-3.19-3.14s1.92-1.84,3-1.56c18.68,4.84,37-2.56,55.5-1.73,2.76.12,5.57-.67,8.25.77a2.39,2.39,0,0,0,2.25-.38c.57-.63-.06-1.51-.52-2.24a14.18,14.18,0,0,0-13-6.95c-11,.19-21.88,1.81-32.74,3.43-7.15,1.06-14.29,0-21.44.06-2.2,0-2.69-1.42-2.82-3.3-.15-2.12,1.18-2.66,2.78-2.65,4.51,0,9.06.6,13.52.17,8.84-.86,17.43-3.39,26.38-3.88,9.3-.5,17.82-.2,26,5.7,7.22,5.19,16.47,5.06,25.24,5.17A1.4,1.4,0,0,1,133.11,411Z"/><path class="cls-1" d="M117.15,121.49c3.81.11,1.51,5,4.46,5.75-1.86,5.63,0,11.84-2.66,17.32-.69,1.4-.35,3-.54,4.07-1.47,8.36-.2,16.16,2.9,23.87a5,5,0,0,1,0,3.42c-2.36,5.59-1.32,11.47-1.76,17.22-.08,1.11.57,2.9-.66,3.15-2,.42-1.8,3.93-4,3-2.6-1.09-2.25-4.1-2.67-7.89-3.13,5.16-2.71,8.93-.51,12.82.74,1.32,2.71,2.3,1.41,4.31-3-1.64-3.12-5.24-5.23-7.48-3-6.55-6.62-12.92-5.42-20.57,1.73-5.86.77-11.8.79-17.74,0-4.92,1.21-9.84,1.88-14.76a.62.62,0,0,0,.38-.58c0-.25-.06-.38-.13-.38.74-2.93,2.09-5.77,1.3-8.93-1.66-3.16.14-5.23,2.26-7.21Z"/><path class="cls-1" d="M349.26,301.24c1.09-.39,2.17-.85,3.29-1.17,1.76-.51,2.79.22,3.38,1.95.78,2.28.32,4.1-2,4.72-3.8,1-4.49,3.22-3,7.55,2-4.32,4.87-5.84,9-5.84,2.26,0,1.12-2.66,1.49-4.13.2-.76-.07-1.79,1-2.08s1.45.55,2.08,1.06c2.53,2,2.36,4.75,1.59,7.28-.43,1.45-1.07,2.6,0,4.24,2-.64,4.08-5.69,6-.1.57,1.65.56,2.23-1.16,3.38-3.41,2.27-4.25,5.87-3.17,9.95,2-.1,1.9-2.25,3.38-2.8s3.17-1.9,4.4-.7c1,1,1.32,3,1.53,4.54.27,2.13-1.73,1.49-2.82,1.89-3.2,1.17-6.53,6.69-5.89,9.82.27,1.35.93,1.65,2,.76.12-.11.19-.29.31-.39,8.24-6.57,8.86-6.35,11.08,3.94a2.88,2.88,0,0,1-1.2.93c-3.37.64-6.91.54-10,2.31-3-2.14-7.07-1.52-9.91-4-1.5-2.51-3.75-3.06-6.43-2.49a34.49,34.49,0,0,1-7.91.68c-3.69-.08-4.66-1.66-3.2-5.09,1.58-3.69,4.62-5,8.4-5,2.52,0,6.51,1,6.63-2.25.16-4-4.09-1.65-6.33-2.29-1.53-.44-3.33.35-4.76-.88-.69-1.78,0-3.61-.24-5.41-.34-4.23.07-8.52-.87-12.71a12.28,12.28,0,0,0-.9-4.33c-.75-1.83-1.7-4.08.33-5.41C347.11,298,347.69,300.92,349.26,301.24Z"/><path class="cls-1" d="M333.61,292.57l1.58.43a1.42,1.42,0,0,0,1,.58l3,2.38c4.54,2.2,4.45,7.06,6.26,10.84a75.08,75.08,0,0,1,.17,14.3,76.84,76.84,0,0,1-5.1,17.57c-1.35,3.16-3.43,6.49-1.14,10.14,6.75-.92,13.28-3.12,20.16-2.93,3,1.69,6.31,2.17,9.6,2.8,1.37,1.63.54,3.28.09,4.94a21.88,21.88,0,0,1-.89,2.05,7.31,7.31,0,0,1-.75,1.3c-3.42,4.12-6.29.27-9.37-.65-7.88-2.26-14.57,1.84-21.57,4.14-1.36.45-2.35,1.89-4,1.83-3.85-4-.93-7.11,1.25-10.35,1.92-15,4-30,2.64-45.19-.42-4.69-2.36-9-3.8-13.38A.89.89,0,0,1,333.61,292.57Z"/><path class="cls-3" d="M366.11,390.62c3.19-1.62,6.67-1.13,9.59,0,4.79,1.87,10.28-.91,14.95,3.21,1.49,1.31.36-2.59,1-3.94A15.13,15.13,0,0,1,394.29,400c-1.09-1-1.24-3.28-3.64-2.63-4.54,1.22-8.94,0-13.23-1.23-2.61-.76-4.91-.11-7.32.46C368.69,394.64,364.7,394.44,366.11,390.62Z"/><path class="cls-1" d="M144.12,280.72c1.76-.88,2.91.08,4,1.3.4,1.27.8,2.55,1.21,3.83.27.28.33.47.16.58a.82.82,0,0,1-.42.09c-1.72-2.9-4.3-1.92-6.61-1.27-3,.85-5.93,2-8.87,3.13-2,.73-3.84,1.05-5.13-.28,3.86-6.43,11-10.72,10.52-19.66-.22-4.27,3.8-.23,5.26-1.84-.55,3.42,1,6.83,0,10.25-2,.29-2.8,1.88-3.79,3.41C141.73,281,143.07,279.73,144.12,280.72Z"/><path class="cls-3" d="M115.23,424.15c1.33-2-.56-2.88-1.46-4.14-1.11-1.56-3.53-2.05-3.63-5,7.84,1.41,15.67,2.13,23.09,5a1.75,1.75,0,0,1,.28,2.91c-4,4.5-8.73,3.38-13.52,1.59-1.08-.4-2.24-.89-3,.55C116.21,425.11,115.48,425.09,115.23,424.15Z"/><path class="cls-3" d="M322.06,337.94c.08,2.22.32,4.46-1,6.67-2-5.87-5.07-11.51-4.21-17.93a99.3,99.3,0,0,0,.59-17.74c3,0,2.7,2.23,2.72,4.21q.08,9.41.18,18.82C320.33,334.13,320.32,336.29,322.06,337.94Z"/><path class="cls-1" d="M122.34,85.16c-6.68,6.09-11.93,11.7-18.52,16.34C105,92.67,112.1,86.12,122.34,85.16Z"/><path class="cls-1" d="M383.29,354a1.21,1.21,0,0,0,0,1c1,1.75,1.81,3.9.33,5.39-1.65,1.67-4,.82-6.07.12-2.9-1.37-5.82.29-8.73,0-2.34-1.45-.88-3.26-.49-5,2.21-4.66,6-6.32,11-5.9C382,349.85,383.42,351.22,383.29,354Z"/><path class="cls-3" d="M399.51,426.94c-3.94-2.35-8.14-1.92-12.19-.71a12.13,12.13,0,0,1-4.18.57c-1.14-2.4,1.1-3.09,2.27-4.15,1.56-1.41,3-2.92,4.69-4.22,2.71-.67,5.55,1.45,8.19-.42C400.4,420.76,400.51,423.77,399.51,426.94Z"/><path class="cls-3" d="M377.12,359.26c6.34,2.53,6.34,2.53,6.17-4.28a2.54,2.54,0,0,1,1.83,2.57c.58,6.22,3.34,12.09,3,18.47-1.3-6.26-3.94-11.27-11.15-12C375.77,362.37,375.67,360.79,377.12,359.26Z"/><path class="cls-3" d="M334,351.94c.24,2.23-.94,4.14-1.39,6.21-.28,1.3-1.46,2.84.59,3.81,1.79,2.11.6,3.65-1,5.1-3.17,2-2.91,5.78-4.15,7.62a95,95,0,0,0,1.1-18.69C330.91,354.86,331.46,352.22,334,351.94Z"/><path class="cls-3" d="M391.12,434.35l9.31.7c2.3,3.4,2,7.09,1.17,10.82-1.29-5.14-5.27-5.46-9.51-5.32C390.13,438.74,389.36,436.74,391.12,434.35Z"/><path class="cls-3" d="M109,130.91c-.53,2.48-3.92,4.05-2.26,7.21-2.82,0-5.66-.21-8,1.85-.58.51-1.4,1.22-2.07.19a1.72,1.72,0,0,1,.73-2.55c2.18-1.09,4.47-2,6.91-3-4.15-2.06-7,2-10.71,1.49C98.11,132.54,103.07,130.33,109,130.91Z"/><path class="cls-3" d="M102.52,180.51c2.41,2.85,1.46,6.36,1.8,9.61.17,1.61-.92,3,2.08,3.82,1.74.46,2.27,4.41,1.55,7.14-3.66-1.11-4.73-4.35-5.63-7.42-.63-2.15-.29-4.47-2.57-6-1.21-.83-.43-2.12.66-2.8C102.05,183.81,101.81,181.94,102.52,180.51Z"/><path class="cls-3" d="M294.59,284c3.09-4.5,1.07-6.34-3.54-7.05a4.24,4.24,0,0,1-3.44-2.54c5.25,2.3,12.14,1.73,14.82,8.5-.17.65-.52,1.09-1.27,1.05a1.3,1.3,0,0,0-2.05.2l-4.62-.23Z"/><path class="cls-3" d="M344,305.47c-2.24-2.83-2.24-6.79-4.73-9.51,3.48,1.49,8,1,10,5.28-2.21,2.1-2-2-4-1.27-1,2.93,2.45,5.12,1.82,8.06C344.29,309.36,345,306.33,344,305.47Z"/><path class="cls-3" d="M70.26,325c-.32,0-.69-.09-.94,0-2.08,1.1-4.87,2.37-5.75-.48-.93-3,2.25-3.2,4.51-3.57a25.72,25.72,0,0,0,3.26-1l.93,1.38c.39,1.84-1.17,2.58-2.08,3.68Z"/><path class="cls-3" d="M187.06,67.45c-6.14.85-12-.37-17.77-1.9C175.44,64.44,181.27,65.91,187.06,67.45Z"/><path class="cls-3" d="M78.32,292c5.8-1.08,3.46,4.31,5.65,6.46-4,1.35-4.72-3.47-7.72-3.31A3.41,3.41,0,0,1,78.32,292Z"/><path class="cls-1" d="M70.19,325.08c-.4-1.84,1.39-2.45,2.08-3.68a14.36,14.36,0,0,1,8.37,6.25C76.43,328.38,74.07,323.66,70.19,325.08Z"/><path class="cls-3" d="M383.29,354c-.65-2.07-1.3-4.15-4.21-3.55-1.58-2.08-.82-3.68,1-5.08l1.58-.27C383.42,347.86,384.23,350.78,383.29,354Z"/><path class="cls-3" d="M124.35,473.72c1.85.21,2.83,1.53,3.44,3,.46,1.15,1.15,2.69.25,3.68-1.17,1.27-2.64.49-3.86-.39C124.24,478,124.29,475.83,124.35,473.72Z"/><path class="cls-3" d="M402.28,458c-2.49-3.26-.72-6.71-.44-10.1C403.74,451.17,403.46,454.56,402.28,458Z"/><path class="cls-3" d="M127.11,460.3c3.31,3.15,3.3,4.15,0,6.28Q127.09,463.45,127.11,460.3Z"/><path class="cls-3" d="M133.11,411l-2-.13c.32-1.3-.39-2.89,1-3.9a4.37,4.37,0,0,0,.89-.16C133.59,408.23,135.05,409.62,133.11,411Z"/><path class="cls-3" d="M391.17,388a8,8,0,0,1-1.71-6.08C391.68,383.49,391.77,385.65,391.17,388Z"/><path class="cls-3" d="M125.17,270a7.06,7.06,0,0,1,6-3l0,0a6.25,6.25,0,0,1-6,3Z"/><path class="cls-3" d="M410.16,500c-1.34-1.17-1.23-2.59-.74-4.08C411.53,497,411.48,498.37,410.16,500Z"/><path class="cls-3" d="M400.34,433a5.7,5.7,0,0,1-.49-4.09C401.49,430.07,401.38,431.46,400.34,433Z"/><path class="cls-3" d="M411.24,506c-1.52-1.15-1.32-2.58-.68-4.09C412.54,503,412.55,504.38,411.24,506Z"/><path class="cls-3" d="M132.74,97.84,131.9,100l-1.46.28c-.58.09-.78-.12-.56-.69A2.52,2.52,0,0,1,132.74,97.84Z"/><path class="cls-3" d="M152.72,292.65c-.92,0-1.87.19-2.54-.69.24-1,.49-2.12,1.8-1.74S153.05,291.66,152.72,292.65Z"/><path class="cls-3" d="M286.16,274.11c-1.69.83-2.72-.19-3.72-1.31C284.07,272.12,285.57,271.84,286.16,274.11Z"/><path class="cls-3" d="M123,431.8c.79.41,1.49,1.2.77,1.82s-1.78-.13-2.55-.72C121.8,432.54,122.39,432.17,123,431.8Z"/><path class="cls-3" d="M128.48,101.35c-1,1-1.91,2.22-3.65,1.26a4.34,4.34,0,0,1,3.09-1.91C128.48,100.6,128.68,100.8,128.48,101.35Z"/><path class="cls-3" d="M408,488.06a1.41,1.41,0,0,1-.47-2.13C408.89,486.36,409.31,487,408,488.06Z"/><path class="cls-3" d="M407,483a1.49,1.49,0,0,1-.41-2.13C407.92,481.39,408.36,482.05,407,483Z"/><path class="cls-3" d="M408.9,493.07a1.48,1.48,0,0,1-.51-2.13C409.86,491.35,410.31,492,408.9,493.07Z"/><path class="cls-3" d="M389.21,380a2.06,2.06,0,0,1-.65-2.09C389.73,378.31,390.29,378.9,389.21,380Z"/><path class="cls-3" d="M404.93,472.06a1.63,1.63,0,0,1-.53-2.12C405.82,470.34,406.35,471,404.93,472.06Z"/><path class="cls-3" d="M406,477.06a1.5,1.5,0,0,1-.47-2.13C406.87,475.36,407.3,476,406,477.06Z"/><path class="cls-3" d="M149.06,286.52l-.1-.42.36-.25a14.68,14.68,0,0,1,1.34,1c.05.05-.18.63-.34.66C149.56,287.68,149.31,287.08,149.06,286.52Z"/><path class="cls-3" d="M305.11,281.28l-1.88.88C303.56,281.23,304.12,280.79,305.11,281.28Z"/><path class="cls-3" d="M125.21,270c-.35.23-.7.47-1.06.69,0,0-.16-.23-.24-.35l1.26-.38Z"/><path class="cls-3" d="M127.92,100.7l2-1.1c.18.23.36.46.56.68l-2,1.07C128.3,101.13,128.11,100.91,127.92,100.7Z"/><path class="cls-3" d="M328.59,338l.45-2.24A2,2,0,0,1,328.59,338Z"/><path class="cls-3" d="M321.3,301.82l.39,2.18A1.91,1.91,0,0,1,321.3,301.82Z"/><path class="cls-3" d="M328.86,353.44c-.11-.49-.21-1-.32-1.47Z"/><path class="cls-3" d="M104.16,398.44l1.09.53Z"/><path class="cls-3" d="M131.24,403.92c.54.19.77.54.53,1.11C131.59,404.66,131.41,404.29,131.24,403.92Z"/><path class="cls-3" d="M378.91,404.8a.78.78,0,0,1,1.23-.1Z"/><path class="cls-3" d="M105.44,147.05l-.25,1Z"/><polygon class="cls-1" points="123.75 373.19 123.84 373.51 123.6 373.48 123.75 373.19"/><path class="cls-3" d="M131.21,267l.18-.38c-.07.12-.15.23-.22.34Z"/><path class="cls-3" d="M279.22,271.85c-.71.18-1-.18-1.07-.83Z"/><path class="cls-3" d="M119.17,428l1.13.9A.9.9,0,0,1,119.17,428Z"/><path class="cls-3" d="M80.07,289a.85.85,0,0,1-.82,1.13Z"/><path class="cls-3" d="M120.18,486.57l1,.43Z"/><path class="cls-1" d="M332.81,293.37l-.38-1.11,1.18.31Z"/><path class="cls-3" d="M336.23,293.58l-1-.58Z"/><path class="cls-1" d="M98.94,302.52l0,1.18-1-.47Z"/><path class="cls-3" d="M317.12,307.12c-.13-.37-.25-.75-.37-1.13C316.87,306.37,317,306.75,317.12,307.12Z"/><path class="cls-3" d="M129.28,388.86a5.56,5.56,0,0,1,.47.72c0,.1-.11.27-.16.41a5.77,5.77,0,0,1-.41-.72C129.14,389.16,129.24,389,129.28,388.86Z"/><path class="cls-3" d="M119.19,471.62l1,.37Z"/><path class="cls-2" d="M215,391.05c3.12-3.47,3.05-4.85-.43-6.41-.67-.3-1.34-.56-1.1-1.28a2,2,0,0,1,1.33-1.2c8.18-.49,12.93-6,17.49-11.83a13.58,13.58,0,0,1,1-1c3.63,3.91,5.59-3.26,9.07-1.38a1.94,1.94,0,0,0,2.66-1.53c.47-1.72-1-1.8-1.88-2.42-4.15-3.12-4.81-9.55-1.31-13.08,1.81-1.83-1-8.09-4.26-9.58-4.46-2-4.75-5.14-1-8.31,3.49-2.93,6.53-6.27,7.66-11.09-2.75-.64-1.51,2.56-3.56,2.46-2.6-5.51,2-11.28-.45-16.75l1,.18a2.78,2.78,0,0,0,3,1c4.48.2,9,.36,13.45.61,1.27.07,2.31-.1,2.88-1.37.51-1.46-.16-4.15,3-2.85l1.22,1.74a1.64,1.64,0,0,0,.3,2.17c3.43,1.36,1.82,4.69,2.6,7.06.22.68-1.15,2.07-2.53,1.83s-.87-1.53-1-2.43-.16-1.58-.33-3.48c-3.58,3.46-2.78,7.46-4.35,10.71,2.44.17,2.36-2.11,3.85-2.73,3.4,4.46,2.32,8.21-1.15,12.27-6.18,7.2-11.66,14.91-13,24.73l-.11-.09c4.42-5.65,11.05-9.55,13.29-17,.39-1.3,1.67-2.4,2.69-3.45,1.62-1.69,2.44-3.28,1.27-5.75-.7-1.47-1.27-4,1.33-4.41,2.44-.41,2.26,2.45,2.35,3.55.61,8-.65,15.6-5.88,22-2.83,3.48-6,6.72-9,10.05-6.82,7.56-12.91,15.57-15.38,25.91,1,.79,1.73-.33,2.48-1.16,5.56-6.12,10.95-12.4,16.72-18.33,6-6.2,8.92-14.38,13.31-21.54,3.43-5.58,1.46-13.31.39-20.05-1.33-8.3-2.92-16.56-4.4-24.84a6,6,0,0,1,2.09-5.76c1-2,2.42-2.86,4.62-2.1,2.91,7.84,1.95,16.35,4.16,24.31,1,3.48,1.22,7,2.83,10.53,1.72,3.78-.89,8.58-3.5,12.27-2.18,3.07-6.18,5.62-1.52,9.75.79.69.48,1.83-.07,2.77-9.18,15.68-19.84,30.2-33.26,42.58-5.49,5.05-11.55,9.72-14.66,17.86Z"/><path class="cls-2" d="M191.3,239.62c-.51-1.62-1.85-1.61-3.22-1.71-9.46-.67-13-6.4-8-15.81,2.37-4.43,2.85-8.94,3.91-14.57a75,75,0,0,1-13.52,6.68c-1.41.49-3,2.71-4.19.46s-3-5.46-.52-7.52c4.83-4,7.22-9.78,11.05-14.48,1.07-1.32,2.42-2.92-.08-5.06-1.42-1.22.34-4.58,2.36-4.18,3.07.6,4.17-1.1,5.76-2.73,2.7-2.77,5.44-2.4,6.08,1.41,1.29,7.74,5.51,14.19,8.21,21.29,2.55,6.68.18,11.5-6.54,13.72a2.11,2.11,0,0,0-1.41,1.86h-4c-1,.65-.65,1.34-.07,2,3.74,2.18,8.6.92,12.09,3.92,2.58,5.31,1.56,8.8-3.35,11.78a20.64,20.64,0,0,0-3.65,2.42Z"/><path class="cls-3" d="M219.13,173.94c-.26,2.89-2.77,2.57-4.51,2.81-2,.28-3.52,1.48-5.77,2.09,3.29.25,7-2.07,8.57,1.59,1.38,3.24-2.07,4.24-4.45,5.38,4.55,3.49,6.55,3,7.73-2,.84-3.54,4.94-3.31,6.58-6.1,2.42-4.15,6.17-2.89,9.22-1,2.83,1.79,2,5.25,1.21,7.65-2.56,7.65-4.61,15.12-3.87,23.46.32,3.62-1.93,7.93-4.72,11s-7.4,2.63-8.93-1.2c-1.75-4.37-3.67-8.06-7.86-10.91-1.93-1.32-1.74-5.65-2.68-8.55-1.46-4.52-3-9-4.66-13.47-.92-2.41-1.74-4.79.25-6.87s3.27-5.06,7.17-3c2.12,1.13,4.51-.57,6.8-.82Z"/><path class="cls-2" d="M295.55,313.33c1.92,4.66,3.32,8.1,4.77,11.53C308,343,316.6,360.8,320.64,380.27c.78,3.74,1.48,7.49,2.34,11.21.67,2.91-.48,4.06-3.29,4.84-3.32.92-3.14-1.31-3.65-3.14-3.69-13.45-6.85-27.14-13.06-39.69-4.77-9.66-6.65-20.1-9.78-30.2C292.11,319.75,294.66,317.55,295.55,313.33Z"/><path class="cls-2" d="M280.53,358.32c4.92,4,3.26,8.14.6,12.42-5.69,9.18-10.65,18.86-17.47,27.25-8.19,10.08-18,18.56-28.51,26.11-1.32.95-3.17,4.15-5.14.62-1.62-2.9-2.55-6.23.83-8.42,14.88-9.65,26.77-22.27,37-36.6C272.65,372.93,274.83,364.57,280.53,358.32Z"/><path class="cls-2" d="M391.12,434.35c.32,2.07.65,4.13,1,6.2-12.86,2.65-25.08,7.53-37.76,10.8-.95.25-2.4.46-2.68,1.1-1,2.21-2.3,3.21-4.51,2a7.08,7.08,0,0,1-3.81-6c-.1-2.55,2.32-3.43,4.42-4,11.15-3.18,22.33-6.29,33.49-9.43.85-.89,2-.36,3-.6Z"/><path class="cls-2" d="M288.29,334.57C299.63,352.88,305,373.83,309.76,395c.84,3.73-1.18,6.32-5,6.75-2.54.29-2-1.9-2.21-3-1.05-5.88-1.95-11.79-2.75-17.71-1.29-9.5-4.85-18.29-8.71-26.91A38,38,0,0,1,288.29,334.57Z"/><path class="cls-2" d="M172.12,329.62c-2.41.52-5.52-4.76-7.17,1a6.42,6.42,0,0,1-1.63-1c-5.56-6.33-12.95-10.26-20.53-12.8-10.26-3.44-17.37-9.91-23.22-18.47a2.69,2.69,0,0,1,3.06.22c5.88,3.91,12.6,6,19.08,8.55a52.65,52.65,0,0,1,17.14,10.81c3.37,3.2,9,2.44,11.31,7.1C170.91,326.52,173.06,327.41,172.12,329.62Z"/><path class="cls-2" d="M390.1,418.43c1.09,4-3.45,3.78-4.66,6.14-.4.78-2.17.76-2.3,2.23-9.27,1.09-17.89,4.62-26.76,7.22-3,.88-6,1.91-9.05,2.66-1.66.42-4,2.72-4.91-.47-.68-2.53-1.28-5.88,2.31-7.21a147,147,0,0,1,14.15-4.63c8-2.05,16-3.74,24-5.58a2.08,2.08,0,0,1,1.26-.13A13.54,13.54,0,0,1,390.1,418.43Z"/><path class="cls-2" d="M313.8,330q.31,3.47.64,7a.7.7,0,0,1-1.06,0c-4.89-8.65-8.44-17.9-11.66-27.23a102.74,102.74,0,0,0-5.39-13.84,26.83,26.83,0,0,1-1.65-3.07c-.85-2.36-1.84-5.4.46-6.85,2.65-1.67,3.86,1.63,5.23,3.24,7.08,8.35,9.68,18.72,12.8,28.84.87.86.37,2,.57,3,0,1,0,2,.07,3A31.86,31.86,0,0,0,313.8,330Z"/><path class="cls-2" d="M377.12,359.26c0,1.58-.09,3.15-.13,4.72-.6,1-1.64,1-2.58,1.2-7.11,1.74-7.13,1.76-10.47,8.57l7.19.5c2,3,.28,4.74-2.05,6.32-3.42,1.94-7.53,1.77-11.61,4.64.76-3.44,3.25-4.88,3.32-7.7l-14.59-1.06a3.68,3.68,0,0,1-1,.15c-2.81.81-6,.58-8.1,3.22-1,1.27-2.53,2.43-3.62.8-.73-1.1-1.88-3.11.31-4.67,5.7-4.05,11.11-8.77,19-6.62a1.26,1.26,0,0,0,.66,1.54c.92.39,1.32-.45,1.76-1.06l5.05.6a5.39,5.39,0,0,0,2-.06c3-1.09,3.53-3.94,4.48-6.48a3.11,3.11,0,0,1,2.52-3.63C371.65,358.29,374.24,357.61,377.12,359.26Z"/><path class="cls-2" d="M366.11,390.62c0,2.85,5.57,2,4,6l-1.86.45a.87.87,0,0,1-1,.3,199.35,199.35,0,0,0-21.68,6.92c-1.77.69-3.55,2-4.54-1.3-.68-2.25-1.76-3.63,1.34-5.19C349.88,394,357.29,390.06,366.11,390.62Z"/><path class="cls-2" d="M332.17,367.06c.52-1.67,1.35-3.27,1-5.1.45-.68.74-1.71,1.37-2,7.82-3.5,15.49-7.86,24.59-4.76,1.45,2.59-.3,4.07-1.93,5.6-8.5.35-16.25,3.36-23.92,6.68A.74.74,0,0,1,332.17,367.06Z"/><path class="cls-2" d="M358.39,383.81c-3.83,6.62-8.85,9.6-15.85,9.18a21,21,0,0,0-5.91.53c-2.32.53-4,.27-4.5-2.33s.15-4.79,3.05-5.3c3.75-.66,7.54-1.13,11.32-1.47S354,384,358.39,383.81Z"/><path class="cls-2" d="M273,394.78c5.76-7.71,12.33-14.89,15.88-24.06,1-2.48,2-1.46,3,0,2.25,3.48,1.57,6.5-1.49,9.12-.67,2.88-2.07,5.08-5.25,5.61L282,388.6c-2.16,2.11-4.37,3.79-2.15,7.62,1.15,2,.19,5.17.19,7.82,0,1.3.58,2.92-1.68,2.89q-2-5.42-4-10.83C273.24,396.3,272.81,395.87,273,394.78Z"/><path class="cls-2" d="M209.37,253.36a20.73,20.73,0,0,0,2.38.6c1.37.18,2.67.42,3.12,2a2.85,2.85,0,0,1-1.6,3.34c-4.88,2.43-9.09,7.47-15.56,4.42-.38-.18-1.2-.22-1.36,0-2.66,3.82-5.75.39-9.3.75,2.06-2.34,3.71-4.24,5.4-6.1.69-.76,1.54-1.37,2.6-.74,4.41,2.61,7,.15,9.25-3.26Z"/><path class="cls-2" d="M292.22,384c2.63,6.45,2.8,13.4,4.1,20.12.53,2.69-1.75,3.34-3.63,3.67a35.06,35.06,0,0,1-6,.08c2.61-5.1-1.3-9.91-.18-14.82a2.52,2.52,0,0,1,.33-1c.15-.63.31-1.25.47-1.88C288,387.38,288.28,384.21,292.22,384Z"/><path class="cls-3" d="M192.22,239.15c.55-.79.92-2,1.67-2.31,5.38-2.41,5.51-7.06,5.33-11.89l12.1,2.34c1.13.22,2.46.34,2.77,1.66.36,1.55-1.18,1.58-2.05,2.24C206.16,235.7,198.71,236.23,192.22,239.15Z"/><path class="cls-3" d="M275,294.1c-1.46.86-2.71,2.19-4.62,2.1-1.15-6.63-2.33-13.26-3.46-19.9-.17-1-.15-2.07,1.38-1.91,1.74.18,3.19.64,3.5,2.77.66,4.39,1.41,8.76,2.19,13.14C274.23,291.58,274.67,292.83,275,294.1Z"/><path class="cls-2" d="M284.9,305.91c-.95-5.82-1.7-10.19-2.36-14.58a19.7,19.7,0,0,1-.23-4.47,4.72,4.72,0,0,1,4.67-4.37c2.32.1,1.65,3,1.22,4.54C286.58,292.72,288.07,298.93,284.9,305.91Z"/><path class="cls-3" d="M332.11,477.7l-2-6.09c3.34-1.11,5.62-3.79,8.12-5.75,4.8,3.5,3.08,6.23-.66,8.74C335.79,475.76,334.36,477.44,332.11,477.7Z"/><path class="cls-3" d="M357.2,360.81c-.85-2.38,1.84-3.54,1.93-5.6,2.73-.09,4.89,5.71,8.11.8A1.15,1.15,0,0,1,369,356c.5,1.41-1.69,2.93.19,4.28l-2.52,3.63C362.94,364.69,360.1,362.64,357.2,360.81Z"/><path class="cls-3" d="M235.5,226.28c2,4.16,1.34,8.76,2.63,12.91a1.85,1.85,0,0,1-1.11,2.46c-1.32.41-1.67-.66-2.22-1.47C231.64,235.53,230.73,231,235.5,226.28Z"/><path class="cls-3" d="M369.08,380.57c.32-2.23,2.34-3.9,2.05-6.32,1.62.15,3.25.43,4.87.43,4.13,0,1.74,3.24,2.13,4.76.57,2.22-1.7.93-2.68,1C373.34,380.63,371.21,380.54,369.08,380.57Z"/><path class="cls-3" d="M280.85,343.58c1.45,4.64,3.49,9.22,3.93,15.4C279.86,353.94,277.25,349.5,280.85,343.58Z"/><path class="cls-3" d="M278.33,406.93,280,404c0,3.38,2.43,5.86,3.24,8.93-1.43.78-1.49,3.25-3.73,3C277.92,413.12,279.41,409.86,278.33,406.93Z"/><path class="cls-3" d="M134.16,322l-3.08-.06c.06-2.67-2.85-2.91-3.85-4.71-.9-1.63-2.47-3.09-1.4-6.05C129.13,314.77,132.94,317.3,134.16,322Z"/><path class="cls-3" d="M292.22,384c-2.53,1.35-2.12,5-4.9,6.18-1.8-1.07.53-4-2.15-4.68a17,17,0,0,1,5.25-5.61Z"/><path class="cls-3" d="M326.28,409.22q-.07-3.48-.16-7c1.81.1,4.39-1.85,4.83,1.87C331.37,407.68,329.84,409.36,326.28,409.22Z"/><path class="cls-3" d="M263.56,305.16c-1.62.29-1.92,2-3,2.85-.13-3.45-.33-6.91,1.84-10C263.5,300.15,262.17,302.94,263.56,305.16Z"/><path class="cls-3" d="M287.38,472.9c-6.1-1.69-2.7-5.64-2.13-8.92A27,27,0,0,1,287.38,472.9Z"/><path class="cls-3" d="M348.15,489.85c-1.69-4.59-3.38-7.57-3.82-12.11C347.47,481.5,348,484.9,348.15,489.85Z"/><path class="cls-3" d="M234.34,432.91c-1.82.3-4,2.67-5.13-.93l0,0,2-2C232.61,430.57,233.89,431.28,234.34,432.91Z"/><path class="cls-3" d="M355.13,369.81c.07,2.19-.63,3.69-3.21,3.61-.64-1.58.7-2.72.79-4.09A2.59,2.59,0,0,1,355.13,369.81Z"/><path class="cls-3" d="M219.21,174c.75-1.85,2.4-2.19,4.67-2.9-1.13,2.71-2.78,3-4.75,2.81Z"/><path class="cls-3" d="M273,394.78l1.29,1.32-3.88,4a6,6,0,0,1-.64-1.45A9.89,9.89,0,0,1,273,394.78Z"/><path class="cls-3" d="M187.13,221c-1.4-.05-1.91-.9-1.85-2.16,0-.63.26-1.4,1-1.25.38.07.62.89.92,1.37C187.17,219.67,187.15,220.35,187.13,221Z"/><path class="cls-3" d="M313.8,330a6.28,6.28,0,0,1,0-6Z"/><path class="cls-3" d="M244.25,308.77c-1.78,2.07-2.33.33-3-1A2.64,2.64,0,0,1,244.25,308.77Z"/><path class="cls-3" d="M265.08,309.07c-.62.25-1.4,1.2-1.81,0s0-2.15,1.51-2.16Z"/><path class="cls-3" d="M313.38,337l1.05,0a1.68,1.68,0,0,1,.18,2.54C314,338.76,313.18,338.1,313.38,337Z"/><path class="cls-3" d="M136.69,352.37c.26.72.64,1.64-.32,1.95-1.13.36-1.07-.68-1.13-1.41Z"/><path class="cls-3" d="M162,107.3l.91.5a6.18,6.18,0,0,1-.76,1c-.09.07-.51-.24-.78-.37Z"/><path class="cls-3" d="M132.36,361c1.43.43,2,1.27,1.24,2.69C132.7,363,131.89,362.26,132.36,361Z"/><path class="cls-3" d="M352.84,497.88c1.17.5,1.5,1.16.43,2.11A2,2,0,0,1,352.84,497.88Z"/><path class="cls-3" d="M384.2,434.43c-.84.89-1.91.7-3,.6C382.06,434,383.16,434.32,384.2,434.43Z"/><path class="cls-3" d="M313.74,321a3.27,3.27,0,0,1-.57-3A3.5,3.5,0,0,1,313.74,321Z"/><path class="cls-2" d="M193.76,364.52c.24.93.77,1.94-.63,2.43l.1.06a1.26,1.26,0,0,1-.28-1.77Z"/><path class="cls-2" d="M299.11,284.15c.59-1.1,1.24-1.48,2.05-.2A1.67,1.67,0,0,1,299.11,284.15Z"/><path class="cls-3" d="M268.48,402.28c-.54.59-1.35,1.26-1.9.53-.69-.94.63-1.07,1.09-1.54A1.17,1.17,0,0,1,268.48,402.28Z"/><path class="cls-3" d="M362.22,370.35a1.17,1.17,0,0,1-2,.06Z"/><path class="cls-3" d="M367.21,397.33l1-.3Z"/><path class="cls-3" d="M270.45,400.08c-.49.39-1,.71-1.39-.08s.28-1,.75-1.37C270,399.11,270.24,399.6,270.45,400.08Z"/><path class="cls-3" d="M145.84,354a5.48,5.48,0,0,1,.34.8c0,.12-.09.28-.15.42a5.36,5.36,0,0,1-.39-.8C145.61,354.33,145.77,354.16,145.84,354Z"/><path class="cls-3" d="M267.67,401.27c.41-.41.83-1.1,1.42-.39s-.22,1-.61,1.4Z"/><path class="cls-3" d="M132.69,359a4.41,4.41,0,0,1,.18.8c0,.07-.26.16-.4.24Z"/><path class="cls-3" d="M154.22,363.17c-.45.84-.8.83-1.05-.12Z"/><path class="cls-3" d="M384.16,418.66l-1.26.13Z"/><path class="cls-3" d="M345.16,376.6c.28-.49.62-.59,1-.15Z"/><polygon class="cls-2" points="294.59 283.99 294.49 283.93 294.57 284.29 294.59 283.99"/><path class="cls-2" d="M107.31,306.89l.67.61-1.28.05A6.28,6.28,0,0,1,107.31,306.89Z"/><path class="cls-3" d="M286.85,392c.33.48.16.79-.33,1Z"/><path class="cls-3" d="M143.82,342a5.69,5.69,0,0,1,.4.72c0,.11-.07.27-.11.4a4.33,4.33,0,0,1-.43-.71C143.64,342.32,143.77,342.15,143.82,342Z"/><path class="cls-1" d="M233.35,475.76c-1.09-7.3-2.22-14.59-3.26-21.9-.23-1.64-.12-3.31-1.08-4.79s-.79-2.47,1.21-3.24,2.43-.47,3.54,1.36c5.36,8.87,5.81,19,7.57,28.71,1.18,6.54,1.72,13.2,3,19.72.68,3.45,1.11,6.12-3.23,7.09-.69.15-1.21,1.08-1.82,1.66-.48-.06-1.16-.06-1.31-.52-2-6.15-4.54-12.18-3.87-18.88a18.88,18.88,0,0,0-.51-8A1.82,1.82,0,0,0,233.35,475.76Z"/><path class="cls-1" d="M193,365.24c.09.59.19,1.18.28,1.77-.54,1.29-1.32.6-1.89.14-7.21-5.89-15.18-10.62-23.14-15.36-4-2.39-5.9-5.52-5.06-10.6C174.48,347.68,182.69,357.76,193,365.24Z"/><path class="cls-3" d="M234.09,485a93.68,93.68,0,0,1,3.68,14.48c.25,1.66-.46,3.74,1.5,4.92,0,2.74-.55,5-4.07,4.64,0-8.22-1.93-16.15-3.37-24.15Z"/><path class="cls-1" d="M239.57,436.65c4.72,5,6.07,11,5.09,17.68-.68-6.19-4.86-11.34-5-17.68Z"/><path class="cls-3" d="M251.19,487c-3.15-7.14-3.28-14.85-4.29-22.39,1.67,7.42,4.31,14.64,4.3,22.37Z"/><path class="cls-3" d="M229.21,432c-1.69-.9-2.52,4.21-4.48.69-.56-1-1.42-2.87.47-3.33a3,3,0,0,1,4,2.68Z"/><path class="cls-3" d="M231.22,482a15.8,15.8,0,0,1-2.6-8.1A8.36,8.36,0,0,1,231.22,482Z"/><path class="cls-3" d="M219.25,442c-.5-1.8,1-1.66,2-2C221.22,441.35,220.3,441.75,219.25,442Z"/><path class="cls-3" d="M219.15,437.15c-.83,0-1.12-.37-.92-1.16Z"/><path class="cls-1" d="M238.32,435.81c.23.55.54,1,1.24.85h.07c-.67,0-1.16-.18-1.25-.94Z"/><path class="cls-3" d="M221.28,437.7l-1.38-.51A1,1,0,0,1,221.28,437.7Z"/><path class="cls-3" d="M220,446.31l-.45-1.34Z"/><path class="cls-3" d="M218,434.25l-.42-1.28Z"/><path class="cls-3" d="M233.35,475.76a5.36,5.36,0,0,1,.39.8c0,.12-.1.28-.16.43a5.23,5.23,0,0,1-.37-.8C233.17,476.07,233.3,475.9,233.35,475.76Z"/><path class="cls-3" d="M251.2,487l.4.2-.41-.18Z"/><path class="cls-3" d="M134.06,454a2.61,2.61,0,0,1,.18,4A5,5,0,0,1,134.06,454Z"/><path class="cls-3" d="M133.8,430a6,6,0,0,1,.11,4.87A8.1,8.1,0,0,1,133.8,430Z"/><path class="cls-3" d="M291.44,432c1.4.4,4-.44,3.83,1.07-.37,2.84-3.34,1.64-5.25,1.82-1.26.12-3.68.56-3.18-1.65S289.92,432.49,291.44,432Z"/><path class="cls-2" d="M155.29,170.74c-.12-.91-.83-2-1.45-1.78-4.8,1.36-8.22-2.71-12.42-3-3.8-.29-.79-3.25-2.18-4.27-6.73,5.24-7.88,5-12.73-2.32-3.07-4.67-.5-17.45,4.07-20.64,3-2.1,4.75-5,2.89-8.54-1-2-.74-3.23.75-4.17,3.76-2.35,6.9-6.48,12.24-4.81.77.24,1.38.25,1.27-.67-.15-1.19-.53-2.84,1.34-1.53,1.6,1.12,4.91-1,5,2.55s1.75,4.56,5.06,4.47c3.46-.1,3-2.39,3-4.51.05-1.28.45-2.56,2-2.19,4.74,1.16,10.07.18,14.05,4.14,1.83,1.83,3.63,2.76,5.22-.82,1.27-2.86,8.79-5,11.69-3.52,1.58.81,3-.56,4.13.27-3.06,5.68-5.76,11.53-9.27,16.85a69.15,69.15,0,0,1-5.72,7c-1.07,1.21-2.5,0-3.73-.32-1-.3-1.13-1.11-.64-1.95.69-1.16,1.83-2.74-.56-2.75-1.7,0-4.08-2.54-5.37,1.09-1.91,5.4-7.17,7.88-11,11.55a32.75,32.75,0,0,0-3.35,4.13c-1.17,1.54-1.06,3,1.7,3.05,3.4,0,6.85.23,2.51,4.7-1.33,1.38-.46,3.53-.59,5.33A10.57,10.57,0,0,1,155.29,170.74Z"/><path class="cls-1" d="M155.29,170.74c2.76-.54,5-2.59,7.91-2.68,2.55,1.47,5.44,1.21,8.19,1.66,5.3.85,7.9,3.67,7.79,8-.05,1.95-.48,4.41-2.34,4.16-2.86-.4-5.89,6.68-8.22-1-1.92,7.9-3.67,8.57-11,6.6-3.61-1-5.79,2.78-8.59,4.44a.61.61,0,0,1-.77.42c-3.58-1.39-1.65-3.49-.62-5.36s2.21-3.58,3.37-5.43c-1.65-1.28-3.3-.78-4.84-.89-1.18-.08-2.67,0-2.54-1.53a1.84,1.84,0,0,1,2.71-1.2c2.45,1.79,3,.8,3.34-1.63C150.15,173.16,153.35,172.53,155.29,170.74Z"/><path class="cls-2" d="M148.27,192.34a1,1,0,0,1,.77-.42c4.17.27,7.08,3.87,11.24,4.26a1.84,1.84,0,0,1,1.52,2.25,3,3,0,0,1-3.18,2.57c-2.15,0-3.81.07-1.83,2.95,1,1.46-.73,2.76-1.63,3.85-1.52,1.83-1.65-.24-2.32-.92-.27-.28-1.15-.45-1.27-.29-4.67,6-7.5-.86-10.87-1.94-2.6-.84-2.32-4.82-2.2-7.47.11-2.42,2.57-1.93,4.35-2.2C144.88,194.68,147.29,194.89,148.27,192.34Z"/><path class="cls-2" d="M222.17,314.8c-2.1,3.13-1.26,7.51-4.82,9.95-.67.45-1.12,1.31-2.06.93s-.68-1.3-.46-2.09c.56-2-.33-3.4-2.33-3.47-3.9-.13-2.92-1.66-1.5-3.88,1.59-2.5,4.89-3.35,5.79-6.55.28-1,1.7-.42,2.64-.05C221.83,310.61,220.85,313.15,222.17,314.8Z"/><path class="cls-2" d="M144.12,280.72c-2.25.64-4,3.28-7.05,1.73,1.19-2.16,3-3.81,4-6.11,1.18-2.93,2.33-.9,3.25.51Z"/><path class="cls-1" d="M164.58,190.88c2.24-1.73,4.44-1.82,6.44-2.47.77-.24,1.66-.68,2,.45a1.7,1.7,0,0,1-1.08,2C169.69,191.7,167.39,192.64,164.58,190.88Z"/><path class="cls-2" d="M195.21,323l.19-.38-.23.34Z"/><path class="cls-2" d="M116.08,363.7c-4.22.58-8.45.77-12.33,2.88-1.22.66-3.24.22-4.79-.17-1.95-.48-2.84-2.43-3.21-4.09-.33-1.46,1.49-1.94,2.69-2.44A49.8,49.8,0,0,1,104,357.7C110.48,355.86,112.58,356.93,116.08,363.7Z"/><path class="cls-2" d="M360.19,346.66c-7.38,2-15.35,1.26-22.37,4.9-.13-8.27,3.28-15.53,6.63-22.78a3.37,3.37,0,0,1,2.76-1.85c3.46-1.51,7.05.45,10.61-.47,1.81-.47,2.59,1.29,2.22,3-.28,1.28,1.58,3.61-1.48,3.68-2.34.05-4.07,1.57-7.12.68-4.12-1.2-7.66,2.11-8.21,7.48,3.82.25,7.5-.74,11.23-1,2.76-.23,7.09-1.9,6,4A1.68,1.68,0,0,1,360.19,346.66Z"/><path class="cls-3" d="M347.21,326.93c-5.61,7.26-6.39,16.36-9.39,24.63-2.57-1.06-1.17-2.92-.92-4.56,1.33-8.71,6.42-16.3,7.55-25.07a2.23,2.23,0,0,1,3.36,0A6.88,6.88,0,0,1,347.21,326.93Z"/><path class="cls-2" d="M369,356l-1.79.05.42-1a1.27,1.27,0,0,1,.53-1l1.33-5.06a.89.89,0,0,1,.65-1c2.41-4.32,6.31-2.9,9.93-2.57a10.87,10.87,0,0,0-1,5.08C375.09,351.13,371.09,351.76,369,356Z"/><path class="cls-2" d="M352.58,322.86c-.35-1.67,1-2.84-.66-4.66-2.16-2.4,2.15-2.68,3.38-3.91,1-1,4.11-1.41,4.61,1.41.25,1.35,2.13,3.9-1.55,4.46C356.54,320.44,354.87,321.75,352.58,322.86Z"/><path class="cls-2" d="M347.81,321.92h-3.36q-.22-8.24-.46-16.45c1,.86,1.41,2.52,3.13,2.55C349.07,312.57,347.91,317.27,347.81,321.92Z"/><path class="cls-3" d="M370.17,348l-.65,1c-3.4.44-6.81.89-9.33-2.28a2.13,2.13,0,0,1,.25-2.43c1.32.69,2.85,1.63,4.19,1C367.75,343.87,369.05,345.57,370.17,348Z"/><path class="cls-3" d="M368.19,354l-.53,1Z"/><path class="cls-1" d="M249.12,356.94l-.27,1.24c-.13-.1-.35-.18-.37-.29-.07-.54,0-1,.75-.86Z"/><path class="cls-1" d="M277.43,395l-.75-.61a2.77,2.77,0,0,1,.75-.51c.19,0,.45.13.68.2Z"/><path class="cls-3" d="M169.93,141.14c0,.93-.25,1.51-1,1.58s-1.4-.28-1.2-1c.12-.49.8-.92,1.32-1.17C169.2,140.42,169.69,141,169.93,141.14Z"/><text class="cls-4" transform="translate(279.98 232.05)">A4</text></svg>